<?xml version="1.0" encoding="utf-8"?>
<!-- Generator: Adobe Illustrator 17.1.0, SVG Export Plug-In . SVG Version: 6.00 Build 0)  -->
<!DOCTYPE svg PUBLIC "-//W3C//DTD SVG 1.1//EN" "http://www.w3.org/Graphics/SVG/1.1/DTD/svg11.dtd">
<svg version="1.1" id="Layer_1" xmlns="http://www.w3.org/2000/svg" xmlns:xlink="http://www.w3.org/1999/xlink" x="0px" y="0px"
	 viewBox="0 0 644 147.7" enable-background="new 0 0 644 147.7" xml:space="preserve">
<g>
	<g>
		<path fill="#333333" d="M172.3,99.8c-5,0-10.9-2.6-14.6-5.9l4.8-7.7c2.4,1.9,6.7,4.5,9.9,4.5c4.9,0,8.2-3.5,8.2-8.3
			c0-10.2-24.2-11.7-24.2-30.3c0-9.9,7.6-16.2,17.1-16.2c5.8,0,12.5,2.9,15.9,7.7l-5.8,5.7c-2.3-2.5-6.1-4.7-9.6-4.7
			c-4.2,0-7.3,2.7-7.3,7c0,12.8,24.2,11.1,24.2,30.9C191,93,182.5,99.8,172.3,99.8z"/>
		<path fill="#333333" d="M217.1,99.8c-4,0-8-1.5-9.9-4.8v20.3h-10.3V50.9h10.3v3.5c1.1-1.2,5-4.9,10.5-4.9
			c12.1,0,17.6,12.5,17.6,23.1C235.3,84.1,231.8,99.8,217.1,99.8z M216.7,58.5c-4,0-7.3,2.7-9.5,4.8v11.8c0,6,1.4,15.8,9.5,15.8
			c7.4,0,8.1-12.4,8.1-17.5C224.8,68,223.8,58.5,216.7,58.5z"/>
		<path fill="#333333" d="M258.2,99.8c-13.1,0-19.4-13.3-19.4-25.2c0-11.8,6.3-25.2,19.4-25.2c13.1,0,19.4,13.4,19.4,25.2
			C277.6,86.5,271.3,99.8,258.2,99.8z M258.2,58.1c-5.7,0-9.2,7.9-9.2,16.5c0,8.6,3.5,16.5,9.2,16.5s9.2-7.8,9.2-16.5
			C267.4,66.1,263.9,58.1,258.2,58.1z"/>
		<path fill="#333333" d="M294.4,99.8c-7.1,0-9.7-5.5-9.7-11.9V59.2l-6.1-1.1v-7.3h6.5v-8.5h9.6v8.5h8.6v8.6h-8.4v28.1
			c0,1.5,0.1,3.4,2.4,3.4c2.2,0,5-1.3,5-1.3l2.4,7.2C300.6,98.9,299.2,99.8,294.4,99.8z"/>
	</g>
</g>
<g>
	<g>
		
			<linearGradient id="SVGID_1_" gradientUnits="userSpaceOnUse" x1="362.9675" y1="38.7772" x2="362.9675" y2="97.6452" gradientTransform="matrix(1 0 0 1 1 2)">
			<stop  offset="0" style="stop-color:#25C0EB"/>
			<stop  offset="0.6166" style="stop-color:#27AFE3"/>
			<stop  offset="1" style="stop-color:#28A8E0"/>
		</linearGradient>
		<path fill="url(#SVGID_1_)" d="M339.2,99.6c-17.9,0-24.6-16.2-24.6-29.4c0-13.2,7-29.4,24.6-29.4c17.8,0,24.6,16.2,24.6,29.4
			C363.9,83.4,357,99.6,339.2,99.6z M339.2,49.3c-10,0-12.7,12.1-12.7,20.9c0,8.7,2.6,20.9,12.7,20.9s12.7-12.1,12.7-20.9
			C351.9,61.5,349.2,49.3,339.2,49.3z"/>
		
			<linearGradient id="SVGID_2_" gradientUnits="userSpaceOnUse" x1="362.9675" y1="38.7772" x2="362.9675" y2="97.6452" gradientTransform="matrix(1 0 0 1 1 2)">
			<stop  offset="0" style="stop-color:#25C0EB"/>
			<stop  offset="0.6166" style="stop-color:#27AFE3"/>
			<stop  offset="1" style="stop-color:#28A8E0"/>
		</linearGradient>
		<path fill="url(#SVGID_2_)" d="M401.8,98.3L379.9,59c0,0,0.8,3.7,0.8,7.4v31.9h-12V42.1h14.1l15.4,28.4c1.8,3.2,3.2,8.1,3.2,8.1
			c0-7.2,0-0.4,0-36.5h12v56.2H401.8z"/>
	</g>
</g>
<g>
	<circle fill="#189DC4" cx="72.6" cy="73.4" r="69.6"/>
	<circle fill="#24C1ED" cx="72.6" cy="73.4" r="50.3"/>
	<circle fill="#199BC2" cx="72.6" cy="73.4" r="31.1"/>
</g>
<g>
	<path fill="#333333" d="M441.2,85.9h-3.9V61.7H451V65h-9.8v7.6h9.1V76h-9.1V85.9z"/>
	<path fill="#333333" d="M471.2,76.7c0,3-0.8,5.3-2.3,7c-1.5,1.7-3.7,2.5-6.4,2.5c-1.7,0-3.2-0.4-4.5-1.2s-2.3-1.9-3-3.3
		c-0.7-1.4-1.1-3.1-1.1-5c0-3,0.8-5.3,2.3-7c1.5-1.7,3.7-2.5,6.5-2.5c2.7,0,4.8,0.9,6.3,2.6C470.4,71.5,471.2,73.8,471.2,76.7z
		 M457.9,76.7c0,4.2,1.6,6.4,4.7,6.4c3.1,0,4.6-2.1,4.6-6.4c0-4.2-1.6-6.3-4.7-6.3c-1.6,0-2.8,0.5-3.6,1.6
		C458.2,73.2,457.9,74.7,457.9,76.7z"/>
	<path fill="#333333" d="M485,67.3c0.8,0,1.4,0.1,1.9,0.2l-0.4,3.6c-0.6-0.1-1.1-0.2-1.7-0.2c-1.6,0-2.8,0.5-3.8,1.5
		c-1,1-1.5,2.3-1.5,4v9.6h-3.9V67.6h3.1l0.5,3.2h0.2c0.6-1.1,1.4-2,2.4-2.6C482.8,67.6,483.9,67.3,485,67.3z"/>
	<path fill="#333333" d="M499.6,61.7h7.2c3.3,0,5.8,0.5,7.2,1.5c1.5,1,2.2,2.5,2.2,4.6c0,1.4-0.4,2.6-1.1,3.5
		c-0.7,0.9-1.8,1.5-3.2,1.8v0.2c1.7,0.3,3,1,3.8,1.9c0.8,0.9,1.2,2.2,1.2,3.8c0,2.2-0.8,3.9-2.3,5.1c-1.5,1.2-3.6,1.8-6.3,1.8h-8.8
		V61.7z M503.6,71.7h3.8c1.7,0,2.9-0.3,3.6-0.8c0.8-0.5,1.1-1.4,1.1-2.7c0-1.1-0.4-2-1.2-2.5c-0.8-0.5-2.1-0.8-3.9-0.8h-3.4V71.7z
		 M503.6,74.9v7.7h4.2c1.7,0,2.9-0.3,3.8-1c0.8-0.6,1.3-1.6,1.3-3c0-1.3-0.4-2.2-1.3-2.8c-0.9-0.6-2.2-0.9-3.9-0.9H503.6z"/>
	<path fill="#333333" d="M534.6,85.9l-0.5-2.4h-0.2c-0.5,0.9-1.3,1.5-2.3,2c-1,0.5-2.1,0.7-3.4,0.7c-2.2,0-3.9-0.6-5-1.7
		c-1.1-1.1-1.6-2.8-1.6-5v-12h3.9v11.3c0,1.4,0.3,2.5,0.9,3.2c0.6,0.7,1.5,1.1,2.7,1.1c1.6,0,2.8-0.5,3.6-1.5c0.8-1,1.2-2.6,1.2-4.9
		v-9.1h3.9v18.4H534.6z"/>
	<path fill="#333333" d="M555.5,80.7c0,1.8-0.7,3.2-2,4.1c-1.3,1-3.2,1.4-5.6,1.4c-2.4,0-4.4-0.4-5.9-1.1v-3.4c2.2,1,4.2,1.5,6,1.5
		c2.4,0,3.6-0.7,3.6-2.2c0-0.5-0.1-0.9-0.4-1.2c-0.3-0.3-0.7-0.6-1.3-1c-0.6-0.3-1.5-0.7-2.5-1.1c-2.1-0.8-3.5-1.6-4.3-2.5
		c-0.7-0.8-1.1-1.9-1.1-3.2c0-1.6,0.6-2.8,1.9-3.7c1.3-0.9,3-1.3,5.2-1.3c2.2,0,4.2,0.4,6.1,1.3l-1.3,2.9c-2-0.8-3.6-1.2-5-1.2
		c-2.1,0-3.1,0.6-3.1,1.8c0,0.6,0.3,1.1,0.8,1.5c0.5,0.4,1.7,0.9,3.5,1.6c1.5,0.6,2.6,1.1,3.3,1.6c0.7,0.5,1.2,1.1,1.5,1.7
		C555.4,79.1,555.5,79.8,555.5,80.7z"/>
	<path fill="#333333" d="M559.5,62.7c0-0.7,0.2-1.2,0.6-1.6c0.4-0.4,0.9-0.6,1.6-0.6c0.7,0,1.2,0.2,1.6,0.6c0.4,0.4,0.6,0.9,0.6,1.6
		c0,0.7-0.2,1.2-0.6,1.6c-0.4,0.4-0.9,0.6-1.6,0.6c-0.7,0-1.3-0.2-1.6-0.6C559.7,63.9,559.5,63.4,559.5,62.7z M563.7,85.9h-3.9V67.6
		h3.9V85.9z"/>
	<path fill="#333333" d="M585.4,85.9h-3.9V74.7c0-1.4-0.3-2.5-0.9-3.2c-0.6-0.7-1.5-1-2.7-1c-1.6,0-2.9,0.5-3.6,1.5
		c-0.8,1-1.1,2.6-1.1,4.9v9.1h-3.9V67.6h3.1l0.5,2.4h0.2c0.6-0.9,1.3-1.5,2.4-2c1-0.5,2.1-0.7,3.4-0.7c4.4,0,6.6,2.2,6.6,6.7V85.9z"
		/>
	<path fill="#333333" d="M598.8,86.3c-2.9,0-5.1-0.8-6.7-2.5c-1.6-1.7-2.4-4-2.4-6.9c0-3,0.7-5.4,2.2-7.1c1.5-1.7,3.5-2.6,6.2-2.6
		c2.4,0,4.3,0.7,5.7,2.2c1.4,1.5,2.1,3.5,2.1,6.1v2.1h-12.2c0.1,1.8,0.5,3.2,1.4,4.1c0.9,1,2.2,1.4,3.8,1.4c1.1,0,2.1-0.1,3-0.3
		c0.9-0.2,1.9-0.5,3-1V85c-1,0.5-1.9,0.8-2.9,1C601.2,86.2,600.1,86.3,598.8,86.3z M598.1,70.2c-1.2,0-2.2,0.4-3,1.2
		c-0.7,0.8-1.2,1.9-1.3,3.4h8.3c0-1.5-0.4-2.7-1.1-3.4C600.3,70.6,599.4,70.2,598.1,70.2z"/>
	<path fill="#333333" d="M622.7,80.7c0,1.8-0.7,3.2-2,4.1c-1.3,1-3.2,1.4-5.6,1.4c-2.4,0-4.4-0.4-5.9-1.1v-3.4c2.2,1,4.2,1.5,6,1.5
		c2.4,0,3.6-0.7,3.6-2.2c0-0.5-0.1-0.9-0.4-1.2c-0.3-0.3-0.7-0.6-1.3-1c-0.6-0.3-1.5-0.7-2.5-1.1c-2.1-0.8-3.5-1.6-4.3-2.5
		c-0.7-0.8-1.1-1.9-1.1-3.2c0-1.6,0.6-2.8,1.9-3.7c1.3-0.9,3-1.3,5.2-1.3c2.2,0,4.2,0.4,6.1,1.3l-1.3,2.9c-2-0.8-3.6-1.2-5-1.2
		c-2.1,0-3.1,0.6-3.1,1.8c0,0.6,0.3,1.1,0.8,1.5c0.5,0.4,1.7,0.9,3.5,1.6c1.5,0.6,2.6,1.1,3.3,1.6c0.7,0.5,1.2,1.1,1.5,1.7
		C622.6,79.1,622.7,79.8,622.7,80.7z"/>
	<path fill="#333333" d="M639.3,80.7c0,1.8-0.7,3.2-2,4.1c-1.3,1-3.2,1.4-5.6,1.4c-2.4,0-4.4-0.4-5.9-1.1v-3.4c2.2,1,4.2,1.5,6,1.5
		c2.4,0,3.6-0.7,3.6-2.2c0-0.5-0.1-0.9-0.4-1.2c-0.3-0.3-0.7-0.6-1.3-1c-0.6-0.3-1.5-0.7-2.5-1.1c-2.1-0.8-3.5-1.6-4.3-2.5
		c-0.7-0.8-1.1-1.9-1.1-3.2c0-1.6,0.6-2.8,1.9-3.7c1.3-0.9,3-1.3,5.2-1.3c2.2,0,4.2,0.4,6.1,1.3l-1.3,2.9c-2-0.8-3.6-1.2-5-1.2
		c-2.1,0-3.1,0.6-3.1,1.8c0,0.6,0.3,1.1,0.8,1.5c0.5,0.4,1.7,0.9,3.5,1.6c1.5,0.6,2.6,1.1,3.3,1.6c0.7,0.5,1.2,1.1,1.5,1.7
		C639.1,79.1,639.3,79.8,639.3,80.7z"/>
</g>
</svg>
